
      <svg data-logo="logo" xmlns="http://www.w3.org/2000/svg" viewBox="0 0 225 43">
        <g id="logogram" transform="translate(0, 1) rotate(0) "><path d="M0.754395 36.81C7.38184 36.81 12.7544 31.4374 12.7544 24.8101C12.7544 18.1826 7.38184 12.81 0.754395 12.81V21.21C2.74261 21.21 4.35437 22.8217 4.35437 24.8101C4.35437 26.7982 2.74261 28.41 0.754395 28.41V36.81Z" fill="#726BEA"/><path d="M40.7544 16.81C38.7038 16.1604 36.5201 15.8099 34.2544 15.8099C22.3802 15.8099 12.7544 25.4359 12.7544 37.3099C12.7544 38.5018 12.8514 39.671 13.0379 40.8099H26.3965C25.9196 39.7408 25.6545 38.5564 25.6545 37.3099C25.6545 32.5603 29.5048 28.7099 34.2544 28.7099C36.8503 28.7099 39.1775 29.8601 40.7544 31.6786V16.81Z" fill="#A5B4FC"/><path d="M2.86423 0.809967C3.85911 9.80987 11.4893 16.81 20.7544 16.81C30.0194 16.81 37.6496 9.80987 38.6445 0.809967H25.7718C24.9771 2.80219 23.0301 4.20996 20.7544 4.20996C18.4786 4.20996 16.5317 2.80219 15.7368 0.809967H2.86423Z" fill="#4F46E5"/></g>
        <g id="logotype" transform="translate(47, 8.5)"><path fill="#726bea" d="M17.64 26.38L17.64 26.38Q14.58 26.38 12.31 25.44Q10.05 24.50 8.79 22.65Q7.52 20.80 7.45 18.10L7.45 18.10L12.53 18.10Q12.63 19.39 13.30 20.25Q13.96 21.11 15.07 21.54Q16.19 21.97 17.59 21.97L17.59 21.97Q18.99 21.97 20.02 21.57Q21.06 21.16 21.64 20.43Q22.22 19.69 22.22 18.72L22.22 18.72Q22.22 17.85 21.70 17.26Q21.18 16.67 20.20 16.24Q19.23 15.81 17.83 15.49L17.83 15.49L15.02 14.79Q11.79 14.00 9.96 12.32Q8.14 10.64 8.14 7.87L8.14 7.87Q8.14 5.56 9.38 3.83Q10.61 2.11 12.78 1.15Q14.94 0.19 17.71 0.19L17.71 0.19Q20.53 0.19 22.63 1.16Q24.73 2.13 25.91 3.84Q27.09 5.56 27.12 7.80L27.12 7.80L22.08 7.80Q21.94 6.26 20.77 5.42Q19.60 4.59 17.66 4.59L17.66 4.59Q16.34 4.59 15.40 4.96Q14.46 5.34 13.96 6.00Q13.47 6.67 13.47 7.53L13.47 7.53Q13.47 8.47 14.04 9.09Q14.61 9.71 15.54 10.10Q16.48 10.48 17.55 10.74L17.55 10.74L19.86 11.30Q21.47 11.66 22.85 12.28Q24.23 12.89 25.28 13.79Q26.32 14.69 26.89 15.92Q27.46 17.15 27.46 18.75L27.46 18.75Q27.46 21.06 26.30 22.78Q25.14 24.50 22.94 25.44Q20.73 26.38 17.64 26.38ZM26.98 6.89L38.31 6.89L38.31 10.81L26.98 10.81L26.98 6.89ZM29.62 20.86L29.62 2.35L34.74 2.35L34.74 20.41Q34.74 21.32 35.14 21.75Q35.55 22.19 36.49 22.19L36.49 22.19Q36.78 22.19 37.31 22.11Q37.84 22.04 38.11 21.97L38.11 21.97L38.84 25.81Q37.99 26.07 37.14 26.17Q36.30 26.27 35.53 26.27L35.53 26.27Q32.66 26.27 31.14 24.87Q29.62 23.47 29.62 20.86L29.62 20.86ZM47.92 26.38L47.92 26.38Q45.05 26.38 42.94 25.14Q40.84 23.90 39.71 21.68Q38.57 19.47 38.57 16.53L38.57 16.53Q38.57 13.56 39.71 11.35Q40.84 9.13 42.94 7.89Q45.05 6.65 47.92 6.65L47.92 6.65Q50.81 6.65 52.90 7.89Q54.99 9.13 56.13 11.35Q57.27 13.56 57.27 16.53L57.27 16.53Q57.27 19.47 56.13 21.68Q54.99 23.90 52.90 25.14Q50.81 26.38 47.92 26.38ZM47.92 22.34L47.92 22.34Q49.28 22.34 50.21 21.58Q51.13 20.82 51.59 19.50Q52.05 18.17 52.05 16.52L52.05 16.52Q52.05 14.82 51.59 13.51Q51.13 12.19 50.21 11.44Q49.28 10.69 47.92 10.69L47.92 10.69Q46.55 10.69 45.64 11.44Q44.72 12.19 44.26 13.51Q43.80 14.82 43.80 16.52L43.80 16.52Q43.80 18.17 44.26 19.50Q44.72 20.82 45.64 21.58Q46.55 22.34 47.92 22.34ZM67.11 26.38L67.11 26.38Q64.22 26.38 62.13 25.14Q60.03 23.90 58.90 21.68Q57.76 19.47 57.76 16.53L57.76 16.53Q57.76 13.56 58.90 11.35Q60.03 9.13 62.13 7.89Q64.22 6.65 67.11 6.65L67.11 6.65Q68.80 6.65 70.23 7.10Q71.67 7.54 72.78 8.36Q73.89 9.18 74.61 10.36Q75.33 11.54 75.60 13.01L75.60 13.01L70.83 13.90Q70.68 13.15 70.35 12.56Q70.03 11.97 69.57 11.55Q69.11 11.13 68.50 10.91Q67.89 10.69 67.16 10.69L67.16 10.69Q65.79 10.69 64.86 11.42Q63.93 12.16 63.46 13.47Q62.99 14.79 62.99 16.52L62.99 16.52Q62.99 18.22 63.46 19.53Q63.93 20.84 64.86 21.59Q65.79 22.34 67.16 22.34L67.16 22.34Q67.89 22.34 68.51 22.11Q69.12 21.88 69.60 21.45Q70.08 21.01 70.41 20.39Q70.73 19.78 70.87 19.01L70.87 19.01L75.63 19.88Q75.36 21.40 74.64 22.59Q73.93 23.78 72.82 24.63Q71.70 25.49 70.26 25.93Q68.82 26.38 67.11 26.38ZM85.02 16.48L81.53 20.41L81.53 14.24L82.30 14.24L88.55 6.89L94.48 6.89L86.23 16.48L85.02 16.48ZM82.01 26L76.88 26L76.88 0.54L82.01 0.54L82.01 26ZM94.84 26L88.81 26L83.07 17.63L86.50 13.99L94.84 26ZM105.33 26L99.57 26L108.27 0.54L115.11 0.54L124.03 26L118.23 26L114.15 13.71Q113.41 11.34 112.65 8.51Q111.89 5.68 111.06 2.33L111.06 2.33L112.18 2.33Q111.38 5.70 110.67 8.54Q109.96 11.39 109.26 13.71L109.26 13.71L105.33 26ZM118.59 20.09L105.01 20.09L105.01 16.00L118.59 16.00L118.59 20.09ZM122.93 6.89L134.26 6.89L134.26 10.81L122.93 10.81L122.93 6.89ZM125.56 20.86L125.56 2.35L130.69 2.35L130.69 20.41Q130.69 21.32 131.09 21.75Q131.49 22.19 132.43 22.19L132.43 22.19Q132.72 22.19 133.25 22.11Q133.78 22.04 134.06 21.97L134.06 21.97L134.79 25.81Q133.94 26.07 133.09 26.17Q132.25 26.27 131.48 26.27L131.48 26.27Q128.61 26.27 127.08 24.87Q125.56 23.47 125.56 20.86L125.56 20.86ZM135.32 0.54L140.45 0.54L140.45 26L135.32 26L135.32 0.54ZM147.86 26.38L147.86 26.38Q146.05 26.38 144.61 25.74Q143.16 25.09 142.33 23.82Q141.50 22.55 141.50 20.65L141.50 20.65Q141.50 19.06 142.09 17.98Q142.68 16.91 143.70 16.26Q144.72 15.61 146.01 15.27Q147.30 14.93 148.72 14.79L148.72 14.79Q150.37 14.62 151.39 14.47Q152.41 14.33 152.88 14.01Q153.35 13.70 153.35 13.08L153.35 13.08L153.35 12.99Q153.35 12.17 153.01 11.61Q152.66 11.05 152.00 10.75Q151.33 10.45 150.36 10.45L150.36 10.45Q149.37 10.45 148.63 10.75Q147.90 11.05 147.43 11.54Q146.97 12.04 146.75 12.65L146.75 12.65L142.05 11.87Q142.55 10.21 143.69 9.05Q144.84 7.88 146.54 7.27Q148.24 6.65 150.36 6.65L150.36 6.65Q151.91 6.65 153.36 7.02Q154.82 7.39 155.97 8.16Q157.12 8.93 157.80 10.16Q158.47 11.39 158.47 13.13L158.47 13.13L158.47 26L153.62 26L153.62 23.35L153.45 23.35Q152.99 24.24 152.22 24.91Q151.45 25.59 150.37 25.98Q149.28 26.38 147.86 26.38ZM149.31 22.77L149.31 22.77Q150.53 22.77 151.44 22.29Q152.36 21.81 152.87 20.99Q153.38 20.17 153.38 19.16L153.38 19.16L153.38 17.10Q153.16 17.27 152.70 17.40Q152.24 17.54 151.67 17.64Q151.11 17.75 150.56 17.83Q150.01 17.92 149.59 17.97L149.59 17.97Q148.65 18.10 147.93 18.41Q147.21 18.72 146.82 19.22Q146.43 19.73 146.43 20.51L146.43 20.51Q146.43 21.25 146.80 21.75Q147.18 22.26 147.82 22.51Q148.46 22.77 149.31 22.77ZM168.16 26.38L168.16 26.38Q165.85 26.38 164.08 25.72Q162.30 25.06 161.17 23.80Q160.04 22.55 159.72 20.77L159.72 20.77L164.49 19.95Q164.86 21.28 165.80 21.95Q166.74 22.62 168.32 22.62L168.32 22.62Q169.77 22.62 170.62 22.06Q171.48 21.51 171.48 20.65L171.48 20.65Q171.48 19.90 170.87 19.42Q170.26 18.94 169.02 18.69L169.02 18.69L165.72 18.00Q162.95 17.44 161.58 16.08Q160.22 14.72 160.22 12.58L160.22 12.58Q160.22 10.74 161.22 9.41Q162.23 8.09 164.03 7.37Q165.82 6.65 168.25 6.65L168.25 6.65Q170.50 6.65 172.16 7.28Q173.82 7.90 174.84 9.05Q175.87 10.19 176.21 11.75L176.21 11.75L171.67 12.55Q171.37 11.58 170.55 10.95Q169.72 10.33 168.32 10.33L168.32 10.33Q167.05 10.33 166.20 10.86Q165.34 11.39 165.34 12.26L165.34 12.26Q165.34 12.99 165.90 13.49Q166.45 13.99 167.80 14.26L167.80 14.26L171.24 14.94Q174.01 15.51 175.36 16.78Q176.71 18.05 176.71 20.10L176.71 20.10Q176.71 21.98 175.61 23.39Q174.52 24.80 172.60 25.59Q170.67 26.38 168.16 26.38Z"/></g>
        
      </svg>
    